<svg xmlns="http://www.w3.org/2000/svg" width="73.499" height="18.25" viewBox="0 0 73.499 18.25">
  <g id="Group_198" data-name="Group 198" transform="translate(-1203 -1313)">
    <path id="Path_548" data-name="Path 548" d="M4.578-4.562,3.359-3.25V0H1.016V-11.375H3.359v5.156L4.391-7.633l2.9-3.742h2.883L6.133-6.32,10.289,0H7.5Zm6.043.258a5.013,5.013,0,0,1,.484-2.242A3.546,3.546,0,0,1,12.5-8.07a4.069,4.069,0,0,1,2.113-.539,3.849,3.849,0,0,1,2.793,1.047,4.2,4.2,0,0,1,1.207,2.844l.016.578A4.418,4.418,0,0,1,17.543-1.02,3.775,3.775,0,0,1,14.629.156a3.793,3.793,0,0,1-2.918-1.172A4.5,4.5,0,0,1,10.621-4.2Zm2.258.164a3.151,3.151,0,0,0,.453,1.84,1.5,1.5,0,0,0,1.3.637,1.5,1.5,0,0,0,1.281-.629A3.448,3.448,0,0,0,16.371-4.3a3.12,3.12,0,0,0-.461-1.828,1.5,1.5,0,0,0-1.3-.648,1.475,1.475,0,0,0-1.281.645A3.506,3.506,0,0,0,12.879-4.141Zm14.91-.008A5.07,5.07,0,0,1,26.9-1.02,2.843,2.843,0,0,1,24.507.156a2.633,2.633,0,0,1-2.07-.891V3.25H20.179v-11.7h2.094l.078.828a2.654,2.654,0,0,1,2.141-.984,2.862,2.862,0,0,1,2.43,1.156,5.207,5.207,0,0,1,.867,3.188Zm-2.258-.164a3.327,3.327,0,0,0-.418-1.82A1.361,1.361,0,0,0,23.9-6.773a1.478,1.478,0,0,0-1.461.813V-2.5a1.5,1.5,0,0,0,1.477.836Q25.531-1.664,25.531-4.312ZM31.73,0H29.464V-8.453H31.73Zm-2.4-10.641a1.112,1.112,0,0,1,.34-.836A1.277,1.277,0,0,1,30.6-11.8a1.28,1.28,0,0,1,.922.328,1.105,1.105,0,0,1,.344.836,1.108,1.108,0,0,1-.348.844,1.283,1.283,0,0,1-.918.328,1.283,1.283,0,0,1-.918-.328A1.108,1.108,0,0,1,29.332-10.641ZM37.64.156A4.15,4.15,0,0,1,34.613-.984a4.054,4.054,0,0,1-1.168-3.039v-.219a5.106,5.106,0,0,1,.492-2.277,3.612,3.612,0,0,1,1.395-1.547,3.914,3.914,0,0,1,2.059-.543,3.508,3.508,0,0,1,2.73,1.094,4.444,4.444,0,0,1,1,3.1v.922H35.734a2.1,2.1,0,0,0,.66,1.328,2,2,0,0,0,1.395.5,2.437,2.437,0,0,0,2.039-.945l1.109,1.242A3.389,3.389,0,0,1,39.562-.246,4.511,4.511,0,0,1,37.64.156Zm-.258-6.937a1.414,1.414,0,0,0-1.09.453,2.341,2.341,0,0,0-.535,1.3H38.9v-.18a1.669,1.669,0,0,0-.406-1.16A1.459,1.459,0,0,0,37.382-6.781Zm9.926.445A6.134,6.134,0,0,0,46.5-6.4a1.654,1.654,0,0,0-1.68.867V0H42.558V-8.453h2.133l.063,1.008a2.092,2.092,0,0,1,1.883-1.164,2.366,2.366,0,0,1,.7.1ZM53.218,0a2.507,2.507,0,0,1-.227-.758,2.732,2.732,0,0,1-2.133.914A3,3,0,0,1,48.8-.562a2.312,2.312,0,0,1-.816-1.812,2.389,2.389,0,0,1,1-2.062,4.915,4.915,0,0,1,2.879-.727H52.9v-.484a1.393,1.393,0,0,0-.3-.937,1.183,1.183,0,0,0-.949-.352,1.345,1.345,0,0,0-.895.273.929.929,0,0,0-.324.75H48.171a2.268,2.268,0,0,1,.453-1.359,3,3,0,0,1,1.281-.98,4.669,4.669,0,0,1,1.859-.355,3.689,3.689,0,0,1,2.48.785,2.747,2.747,0,0,1,.918,2.207v3.664A4.041,4.041,0,0,0,55.5-.133V0ZM51.351-1.57a1.945,1.945,0,0,0,.922-.223,1.462,1.462,0,0,0,.625-.6V-3.844h-.844q-1.7,0-1.8,1.172l-.008.133a.9.9,0,0,0,.3.7A1.153,1.153,0,0,0,51.351-1.57Z" transform="translate(1221 1328)" fill="#090d14"/>
    <path id="ic_content_copy_24px" d="M12.182,1H3.455A1.459,1.459,0,0,0,2,2.455V12.636H3.455V2.455h8.727Zm2.182,2.909h-8A1.459,1.459,0,0,0,4.909,5.364V15.545A1.459,1.459,0,0,0,6.364,17h8a1.459,1.459,0,0,0,1.455-1.455V5.364A1.459,1.459,0,0,0,14.364,3.909Zm0,11.636h-8V5.364h8Z" transform="translate(1201 1312)"/>
  </g>
</svg>
