<svg xmlns="http://www.w3.org/2000/svg" xmlns:xlink="http://www.w3.org/1999/xlink" width="745.461" height="859.795" viewBox="0 0 745.461 859.795">
  <defs>
    <filter id="Sphere" x="115.509" y="173.934" width="514.444" height="513.758" filterUnits="userSpaceOnUse">
      <feOffset input="SourceAlpha"/>
      <feGaussianBlur stdDeviation="24" result="blur"/>
      <feFlood flood-color="#fff"/>
      <feComposite operator="in" in2="blur"/>
      <feComposite in="SourceGraphic"/>
    </filter>
  </defs>
  <g id="Symbol" style="mix-blend-mode: normal;isolation: isolate">
    <g id="Back" transform="translate(123.481 71.802)">
      <path id="Black_Outer" d="M156.741,74.872v71.8L95,182.347V39.2Z" transform="translate(215.99 68.274)" fill="#090d14"/>
      <path id="Black_Inner" d="M275.435,15.7V302.451l-62.2-35.672v-143.6L151.5,158.847,89.3,194.519,27.1,158.847l62.2-35.672h0L151.5,87.5l62.2-35.672h0Z" transform="translate(-26.643 -15.7)" fill="#090d14"/>
      <path id="Black_Inner_00000011024224137113507970000007927132827323354776_" d="M213.594,101.8v71.8l-62.2,35.672L89.2,244.947h0L27,209.274,89.2,173.6l62.2-35.673h0Z" transform="translate(-27 291.968)" fill="#090d14"/>
      <path id="Orange_Outer" d="M116.4,39.2V182.347L54.2,146.674v-71.8Z" transform="translate(70.196 68.274)" fill="#e1822f"/>
      <path id="Orange_Inner" d="M329.277,158.847l-62.2,35.672-61.741-35.672L143.6,123.174V266.321L81.4,301.994V15.7h0l62.2,35.672,62.2,35.672h0l62.2,35.672h0Z" transform="translate(167.392 -15.7)" fill="#e1822f"/>
      <path id="Orange_Inner_00000013879759996789503960000011809372646295626418_" d="M280.679,209.274l-62.2,35.672h0l-62.2-35.672L95,173.6V101.8l62.2,35.672,62.2,35.672h0Z" transform="translate(215.99 291.968)" fill="#e1822f"/>
      <path id="Pink_Outer" d="M213.594,129.672l-62.2,35.672h0L89.2,201.017,27,236.69v-71.8l62.2-35.672L151.853,94Z" transform="translate(-27 264.096)" fill="#ffdbc2"/>
      <path id="Pink_Outer_00000102507267653456423760000010604492600850512256_" d="M280.679,165.345v71.8l-62.2-35.672h0l-62.2-35.672L95,129.672,157.2,94l62.2,35.672Z" transform="translate(215.99 264.096)" fill="#ffdbc2"/>
    </g>
    <g transform="matrix(1, 0, 0, 1, 0, 0)" filter="url(#Sphere)">
      <path id="Sphere-2" data-name="Sphere" d="M411.444,239.111a183.265,183.265,0,0,1-91.925,158.7l-2.287,1.372a182.234,182.234,0,0,1-182.021,0l-2.287-1.372A183.265,183.265,0,0,1,41,239.111V238.2A183.265,183.265,0,0,1,132.925,79.5l2.287-1.372a182.233,182.233,0,0,1,182.02,0l2.287,1.372a183.265,183.265,0,0,1,91.925,158.7Z" transform="translate(146.51 192.16)" fill="#fff"/>
    </g>
    <g id="Front">
      <path id="Black_Left" d="M75.7,106.172V321.121L13.5,356.794V70.5Z" transform="translate(48.241 251.923)" fill="#090d14"/>
      <path id="Pink_Left" d="M261.835,232.417v71.8l-62.2-35.672h0l-62.2-35.672h0L75.7,196.745,13.5,161.072,75.7,125.4l62.2,35.672h0l62.2,35.672h0Z" transform="translate(48.241 448.102)" fill="#ffdbc2"/>
      <path id="Pink_Right" d="M342.877,160.615l-62.2,35.672h0l-62.2,35.672h0l-62.2,35.673L95,304.219v-71.8l62.2-35.672,62.2-35.672h0l62.2-35.672Z" transform="translate(339.471 448.102)" fill="#ffdbc2"/>
      <path id="Orange_Right" d="M197.8,70.5V357.251l-62.2-35.673V106.63Z" transform="translate(484.55 251.923)" fill="#e1822f"/>
      <path id="Right" d="M453.673,47l-62.2,35.672-62.2,35.672-62.2,35.672h0l-62.2,35.672h0L143.6,225.819h0l-62.2,36.13v429.9l62.2-35.672h0L205.8,620.5l62.2-35.672h0l62.2-35.672,62.2-35.672,62.2-35.672h0L453.673,47Zm-62.2,393.768-62.2,35.672h0l-62.2,35.672h0l-62.2,35.672L143.6,584.372V298.079l62.2-35.672,62.2-35.672,62.2-35.672,62.2-35.672Z" transform="translate(290.873 167.949)" fill="#090d14"/>
      <path id="Left" d="M310.075,225.819l-62.2-35.672h0l-62.2-35.672-62.2-35.672h0L61.283,83.13,0,47V476.9L62.2,512.57l62.2,35.672,62.2,35.672,62.2,35.672h0l62.2,35.672,62.2,35.672V261.949Zm0,358.553-62.2-35.672h0l-62.2-35.672h0L123.939,476.9l-62.2-35.672V154.474l62.2,35.672,62.2,35.672h0l62.2,36.13,62.2,35.672Z" transform="translate(0 167.949)" fill="#e1822f"/>
      <path id="Top" d="M682.348,179.277,620.15,143.6h0l-62.2-35.672h0l-62.2-35.672L434.471,35.672,372.273,0l-62.2,35.672-62.2,35.672-62.2,35.672h0l-62.2,35.672-62.2,35.672h0L0,214.949l62.2,35.672,62.2,35.672h0l62.2,35.672,62.2,35.672h0l62.2,35.672L372.273,429.9l62.2-35.672h0l62.2-35.672h0l62.2-35.672h0l62.2-35.672,62.2-35.672,62.2-35.672ZM558.41,250.621h0l-62.2,35.672-61.741,36.13-62.2,35.672-62.2-35.672-62.2-35.672h0l-62.2-35.672-61.741-36.13,62.2-35.672h0l62.2-35.672,62.2-35.672h0l62.2-35.672h0l62.2,35.672,62.2,35.672h0l62.2,35.672h0l62.2,35.672Z" fill="#ffdbc2"/>
    </g>
  </g>
</svg>
