<svg id="Icon-Success" xmlns="http://www.w3.org/2000/svg" width="48" height="54.947" viewBox="0 0 48 54.947">
  <path id="Sphere" d="M64.853,65.709a11.8,11.8,0,0,1-5.919,10.218l-.147.088a11.734,11.734,0,0,1-11.72,0l-.147-.088A11.8,11.8,0,0,1,41,65.709V65.65a11.8,11.8,0,0,1,5.919-10.218l.147-.088a11.734,11.734,0,0,1,11.72,0l.147.088A11.8,11.8,0,0,1,64.853,65.65Z" transform="translate(-28.928 -38.207)" fill="#17811d"/>
  <path id="Border" d="M48,14.418c0-.031,0-.061-.006-.093s0-.05-.005-.074-.012-.065-.019-.1-.008-.045-.014-.068-.02-.062-.031-.093-.013-.044-.022-.064-.029-.059-.043-.088-.019-.042-.03-.061-.035-.054-.053-.08-.024-.039-.038-.058-.047-.055-.072-.082-.024-.029-.037-.043a1.3,1.3,0,0,0-.109-.1l-.017-.015a1.346,1.346,0,0,0-.142-.095L24.6.172a1.28,1.28,0,0,0-1.284,0L.717,13.309h0l0,0c-.017.01-.032.022-.048.033s-.062.039-.091.061c-.013.011-.025.023-.038.034-.03.025-.06.05-.087.078-.011.011-.019.022-.029.034a1.205,1.205,0,0,0-.08.092c-.008.011-.015.023-.023.034a1.248,1.248,0,0,0-.069.1c-.007.012-.012.026-.019.038-.019.036-.038.072-.054.11-.006.015-.01.031-.016.046-.013.037-.028.073-.038.111-.005.02-.008.04-.012.06s-.016.069-.02.1,0,.051-.005.076-.006.06-.006.09L0,40.524a1.281,1.281,0,0,0,.641,1.113L23.4,54.776a1.282,1.282,0,0,0,.641.172,1.251,1.251,0,0,0,.166-.011c.017,0,.034-.007.052-.01.037-.007.075-.012.112-.022.018,0,.035-.012.053-.018.036-.011.071-.022.106-.036.017-.007.032-.016.049-.024.034-.016.068-.031.1-.05l0,0h0L47.288,41.636a1.281,1.281,0,0,0,.637-1.1L48,14.424v-.006M23.965,2.763l20.2,11.661L24.109,26.077,3.911,14.416ZM2.63,16.635,22.828,28.3l-.064,22.5,0,.652L2.565,39.79ZM45.366,39.79,25.325,51.436,25.39,28.3,45.431,16.65Z" transform="translate(0 -0.001)" fill="#05b72e"/>
</svg>
