<svg id="Icon-Fail" xmlns="http://www.w3.org/2000/svg" width="48.003" height="55.187" viewBox="0 0 48.003 55.187">
  <path id="Sphere" d="M64.853,65.709a11.8,11.8,0,0,1-5.919,10.218l-.147.088a11.734,11.734,0,0,1-11.72,0l-.147-.088A11.8,11.8,0,0,1,41,65.709V65.65a11.8,11.8,0,0,1,5.919-10.218l.147-.088a11.734,11.734,0,0,1,11.72,0l.147.088A11.8,11.8,0,0,1,64.853,65.65Z" transform="translate(-28.926 -38.088)" fill="#be0000"/>
  <path id="Border" d="M21505.039,12933.876a.508.508,0,0,1-.248-.07l-4.16-2.4a.509.509,0,0,1-.232-.3.473.473,0,0,1,.049-.377.5.5,0,0,1,.432-.249.506.506,0,0,1,.248.065l3.416,1.978.01-3.949a.5.5,0,0,1,.5-.5.506.506,0,0,1,.5.5l-.01,3.934,3.4-1.978a.5.5,0,0,1,.682.184.479.479,0,0,1,.053.372.49.49,0,0,1-.23.3l-4.156,2.415a.273.273,0,0,1-.053.021l-.018.008-.018.009-.035.016A.466.466,0,0,1,21505.039,12933.876Zm-9.234-5.333a.462.462,0,0,1-.248-.07l-5.074-2.928a.5.5,0,0,1-.184-.676.51.51,0,0,1,.436-.249.5.5,0,0,1,.246.065l5.074,2.929a.506.506,0,0,1,.184.682A.515.515,0,0,1,21495.8,12928.543Zm18.414,0a.492.492,0,0,1-.432-.248.5.5,0,0,1-.047-.38.477.477,0,0,1,.23-.3l5.025-2.924a.515.515,0,0,1,.25-.066.5.5,0,0,1,.43.245.506.506,0,0,1-.178.681l-5.031,2.923A.5.5,0,0,1,21514.219,12928.538Zm-9.152-5.269a.486.486,0,0,1-.352-.148.474.474,0,0,1-.141-.349l.012-5.8a.5.5,0,1,1,.994.006l-.012,5.8A.5.5,0,0,1,21505.066,12923.27Zm19.207-.572a.492.492,0,0,1-.432-.248.506.506,0,0,1,.184-.682l3.906-2.27.012-4.517a.5.5,0,0,1,.5-.5h.006a.5.5,0,0,1,.492.5l-.012,4.8a.511.511,0,0,1-.248.432l-4.154,2.41A.451.451,0,0,1,21524.273,12922.7Zm-38.615-.011a.473.473,0,0,1-.248-.07l-4.16-2.4a.5.5,0,0,1-.25-.432l.012-4.8a.5.5,0,0,1,.5-.5h.006a.49.49,0,0,1,.492.5l-.012,4.517,3.912,2.259a.5.5,0,0,1,.184.681A.5.5,0,0,1,21485.658,12922.687Zm19.445-11.017h-.006a.5.5,0,0,1-.5-.5l.016-4.517-3.912-2.259a.5.5,0,0,1,.246-.928.5.5,0,0,1,.252.069l3.912,2.253,3.906-2.27a.486.486,0,0,1,.244-.065.5.5,0,0,1,.432.249.484.484,0,0,1,.051.377.469.469,0,0,1-.23.3l-3.906,2.274-.016,4.517A.5.5,0,0,1,21505.1,12911.67Zm23.352-1.994a.5.5,0,0,1-.5-.5l.016-5.8a.5.5,0,0,1,.994,0l-.016,5.8A.5.5,0,0,1,21528.455,12909.676Zm-46.93,0a.493.493,0,0,1-.354-.147.472.472,0,0,1-.139-.35l.016-5.8a.5.5,0,1,1,.994,0l-.016,5.8A.506.506,0,0,1,21481.525,12909.676Zm14.355-8.143a.528.528,0,0,1-.248-.064l-5.074-2.935a.477.477,0,0,1-.23-.3.5.5,0,0,1,.047-.379.507.507,0,0,1,.434-.249.5.5,0,0,1,.248.065l5.072,2.928a.5.5,0,0,1-.248.93Zm18.414,0a.489.489,0,0,1-.428-.249.493.493,0,0,1,.18-.676l5.023-2.923a.478.478,0,0,1,.246-.065h.035a.5.5,0,0,1,.223.924l-5.031,2.923A.506.506,0,0,1,21514.295,12901.528Zm14.193-3.453a.491.491,0,0,1-.352-.146.484.484,0,0,1-.141-.351l.006-3.938-3.4,1.978a.431.431,0,0,1-.107.049l-.018,0a.037.037,0,0,1-.016,0h-.008a.388.388,0,0,1-.078.01l-.008,0c-.006,0-.008,0-.008,0h-.018l-.043-.007-.064-.01h-.01a.79.79,0,0,1-.1-.042l-.008,0a.074.074,0,0,1-.021-.018.233.233,0,0,1-.07-.05.029.029,0,0,1-.01-.009l0,0a.047.047,0,0,0-.014-.009.255.255,0,0,0-.021-.026l-.008-.009a.511.511,0,0,1-.045-.062.505.505,0,0,1,.184-.681l3.408-1.982-3.414-1.973a.492.492,0,0,1-.23-.3.495.495,0,0,1,.729-.562l4.16,2.4.02.014.008.006.006,0a.4.4,0,0,1,.068.059.486.486,0,0,1,.061.075.031.031,0,0,0,.008.012.024.024,0,0,1,.008.016.155.155,0,0,1,.025.049l0,.009a.216.216,0,0,0,.016.034.061.061,0,0,0,.012.026.038.038,0,0,1,0,.015s0,.01,0,.015a.272.272,0,0,0,.006.042.124.124,0,0,0,0,.027.091.091,0,0,1,0,.032l-.012,4.809A.5.5,0,0,1,21528.488,12898.075Zm-46.926,0h-.006a.5.5,0,0,1-.5-.5l.016-4.8a.111.111,0,0,1,0-.025.1.1,0,0,0,0-.023l.006-.045a.186.186,0,0,1,0-.036.043.043,0,0,0,.012-.021l.006-.012a.322.322,0,0,1,.037-.086s0,0,0-.006h0l0-.006a.54.54,0,0,1,.068-.091l.012-.009a.027.027,0,0,0,.01-.008.37.37,0,0,1,.08-.06l4.156-2.415a.48.48,0,0,1,.248-.069.505.505,0,0,1,.432.248.5.5,0,0,1,.045.383.48.48,0,0,1-.229.3l-3.408,1.983,3.414,1.972a.48.48,0,0,1,.229.3.493.493,0,0,1-.045.382.879.879,0,0,1-.055.072l-.012.015-.01.012a.046.046,0,0,0-.021.021.32.32,0,0,0-.047.034.207.207,0,0,1-.023.02l-.008,0-.008,0-.016.008a.8.8,0,0,1-.1.043h-.006a.8.8,0,0,1-.107.011l-.006,0a.018.018,0,0,1-.01,0h0l-.008,0a.028.028,0,0,0-.014,0,.4.4,0,0,1-.082-.011h-.01l-.008,0a.059.059,0,0,0-.02,0,.62.62,0,0,1-.107-.048l-3.416-1.973-.016,3.95A.492.492,0,0,1,21481.563,12898.075Zm37.709-10.136a.5.5,0,0,1-.25-.065l-5.072-2.928a.5.5,0,1,1,.5-.859l5.074,2.929a.494.494,0,0,1-.248.924Zm-28.518,0a.5.5,0,0,1-.25-.93l5.025-2.923a.5.5,0,0,1,.246-.065.51.51,0,0,1,.436.249.5.5,0,0,1-.18.676l-5.029,2.923A.462.462,0,0,1,21490.754,12887.939Zm10.055-5.847a.493.493,0,0,1-.432-.243.5.5,0,0,1,.178-.681l4.154-2.415a.518.518,0,0,1,.25-.064.5.5,0,0,1,.248.064l4.166,2.4a.475.475,0,0,1,.229.3.484.484,0,0,1-.051.377.5.5,0,0,1-.676.184l-3.912-2.259-3.906,2.27A.456.456,0,0,1,21500.809,12882.093Z" transform="translate(-21481 -12878.689)" fill="#090d14"/>
</svg>
