<?xml version="1.0" encoding="UTF-8"?>
<svg width="1596px" height="520px" viewBox="1232 2838 1596 520" xmlns="http://www.w3.org/2000/svg" xmlns:xlink="http://www.w3.org/1999/xlink" version="1.1">
 <!-- Generated by Pixelmator Pro Trial 2.2 -->
 <g id="Black-on-white">
  <defs>
   <text id="string" transform="matrix(1.0 0.0 0.0 1.0 2480.0 3319.0)" font-size="47.901" font-family="Helvetica, Helvetica" text-decoration="none" fill="#000000" y="37.0" x="1.0">AV  NETNOD</text>
  </defs>
  <use id="AV--NETNOD-copy" xlink:href="#string"/>
  <defs>
   <linearGradient id="linear-gradient" gradientUnits="userSpaceOnUse" x1="1326.743" y1="2918.441" x2="1598.464" y2="3264.114">
    <stop offset="0" stop-color="#4f4f4f" stop-opacity="1"/>
    <stop offset="1" stop-color="#000000" stop-opacity="1"/>
   </linearGradient>
  </defs>
  <path id="Shape-copy" d="M1468.864 2951.499 C1468.864 2951.499 1436.714 2879.682 1353.01 2879.682 1269.307 2879.682 1232.4 2934.926 1232.4 2986.588 1232.4 3038.251 1279.16 3105.896 1340.401 3162.841 1401.642 3219.785 1468.138 3273.6 1468.138 3273.6 1468.138 3273.6 1553.52 3207.767 1600.261 3164.285 1647.002 3120.803 1705.247 3045.098 1705.247 2985.987 1705.247 2927.237 1643.927 2879.2 1590.941 2879.2 1516.382 2879.2 1485.778 2916.611 1468.864 2951.499 Z" fill-opacity="1" fill="url(#linear-gradient)" stroke="none"/>
  <defs>
   <linearGradient id="linear-gradient-1" gradientUnits="userSpaceOnUse" x1="1506.388" y1="2992.749" x2="1557.529" y2="3135.196">
    <stop offset="0" stop-color="#9fe558" stop-opacity="1"/>
    <stop offset="1" stop-color="#67c200" stop-opacity="1"/>
   </linearGradient>
  </defs>
  <path id="Shape-2-copy" d="M1394.488 3069.805 L1471.847 3135.858 1613.342 3009.85 1596.481 2996.159 1470.389 3082.525 1408.917 3057.362 1394.488 3069.805 Z" fill-opacity="1" fill="url(#linear-gradient-1)" stroke="none"/>
  <defs>
   <text id="string-1" transform="matrix(1.0 0.0 0.0 1.0 1803.0 2830.0)">
    <tspan text-decoration="none" font-size="246.348" x="1.0" fill="#000000" y="190.0" font-family="Helvetica, Helvetica">ROBUST</tspan>
    <tspan text-decoration="none" font-size="246.348" x="1.0" fill="#000000" y="426.80000352859497" font-family="Helvetica, Helvetica">TJÄNST</tspan>
   </text>
  </defs>
  <use id="ROBUST-TJÄNST-copy" xlink:href="#string-1"/>
 </g>
</svg>
