<svg xmlns="http://www.w3.org/2000/svg" xmlns:xlink="http://www.w3.org/1999/xlink" width="59.853" height="59.809" viewBox="0 0 59.853 59.809">
  <defs>
    <filter id="Sphere" x="0" y="0" width="59.853" height="59.809" filterUnits="userSpaceOnUse">
      <feOffset input="SourceAlpha"/>
      <feGaussianBlur stdDeviation="6" result="blur"/>
      <feFlood flood-color="#fff"/>
      <feComposite operator="in" in2="blur"/>
      <feComposite in="SourceGraphic"/>
    </filter>
  </defs>
  <g id="Symbol" transform="translate(5.926 2.164)">
    <g id="Back" transform="translate(7.951 4.623)">
      <path id="Black_Outer" d="M98.975,41.5V46.12L95,48.417V39.2Z" transform="translate(-74.975 -32.28)" fill="#00650c"/>
      <path id="Black_Inner" d="M43.09,15.7V34.164l-4-2.3V22.62l-3.975,2.3-4,2.3-4-2.3,4-2.3h0l4-2.3,4-2.3h0Z" transform="translate(-27.071 -15.7)" fill="#00650c"/>
      <path id="Black_Inner_00000011024224137113507970000007927132827323354776_" d="M39.015,101.8v4.623l-4,2.3-4,2.3h0l-4-2.3,4-2.3,4-2.3h0Z" transform="translate(-27 -76.445)" fill="#00650c"/>
      <path id="Orange_Outer" d="M58.2,39.2v9.217l-4-2.3V41.5Z" transform="translate(-46.19 -32.28)" fill="#05b72e"/>
      <path id="Orange_Inner" d="M97.361,24.917l-4,2.3-3.975-2.3L85.4,22.62v9.217l-4,2.3V15.7h0l4,2.3,4,2.3h0l4,2.3h0Z" transform="translate(-65.38 -15.7)" fill="#05b72e"/>
      <path id="Orange_Inner_00000013879759996789503960000011809372646295626418_" d="M106.956,108.72l-4,2.3h0l-4-2.3L95,106.423V101.8l4,2.3,4,2.3h0Z" transform="translate(-74.975 -76.445)" fill="#05b72e"/>
      <path id="Pink_Outer" d="M39.015,96.3l-4,2.3h0l-4,2.3-4,2.3V98.564l4-2.3L35.039,94Z" transform="translate(-27 -70.942)" fill="#ade6ba"/>
      <path id="Pink_Outer_00000102507267653456423760000010604492600850512256_" d="M106.956,98.594v4.623l-4-2.3h0l-4-2.3L95,96.3,99,94l4,2.3Z" transform="translate(-74.975 -70.942)" fill="#ade6ba"/>
    </g>
    <path id="Back-overlay" d="M-17797.633-23472.891l-3.945-2.295v-4.625l4-2.295,4.008,2.295,3.947,2.3v4.623l-4.008,2.3Zm-23.971,0,4.006-2.295,4.008-2.3,4-2.328-4,2.3-4.008,2.3-4.006,2.3v-4.625l4.006-2.3,4.033-2.268,3.979,2.295v4.625l-4,2.295-4.008,2.3Zm12.018-16.1v-9.246l0,0v9.213l-4.006-2.3v-4.605l-3.973,2.279-4-2.3,4-2.295,4-2.3,4.006-2.3,3.977-2.328v18.469Zm4-16.172,4,2.3,4,2.3,4.008,2.3,3.947,2.326-4.008,2.3-3.973-2.3v4.623l-3.979,2.3-4,2.3Z" transform="translate(17829.553 23509.787)" fill="#fff" style="mix-blend-mode: overlay;isolation: isolate"/>
    <g transform="matrix(1, 0, 0, 1, -5.93, -2.16)" filter="url(#Sphere)">
      <path id="Sphere-2" data-name="Sphere" d="M64.853,65.709a11.8,11.8,0,0,1-5.919,10.218l-.147.088a11.734,11.734,0,0,1-11.72,0l-.147-.088A11.8,11.8,0,0,1,41,65.709V65.65a11.8,11.8,0,0,1,5.919-10.218l.147-.088a11.734,11.734,0,0,1,11.72,0l.147.088A11.8,11.8,0,0,1,64.853,65.65Z" transform="translate(-23 -35.77)" fill="#fff"/>
    </g>
    <g id="Front">
      <g id="Inner" transform="translate(3.976 20.761)">
        <path id="Black_Left" d="M17.5,72.8v13.84l-4,2.3V70.5Z" transform="translate(-13.5 -70.5)" fill="#00650c"/>
        <path id="Pink_Left" d="M29.49,132.291v4.623l-4-2.3h0l-4-2.3h0L17.5,129.994l-4-2.3,4-2.3,4,2.3h0l4,2.3h0Z" transform="translate(-13.5 -109.234)" fill="#ade6ba"/>
        <path id="Pink_Right" d="M110.961,127.667l-4,2.3h0l-4,2.3h0l-4,2.3L95,136.914v-4.623l4-2.3,4-2.3h0l4-2.3Z" transform="translate(-71 -109.234)" fill="#ade6ba"/>
        <path id="Orange_Right" d="M139.6,70.5V88.964l-4-2.3V72.826Z" transform="translate(-99.644 -70.5)" fill="#05b72e"/>
      </g>
      <path id="Inner-overlay" d="M-17787-23475.943l4.006-2.3,4-2.295,3.975-2.281-.025-.016v-13.844l4-2.326v18.467l-.027-.016-3.977,2.279-4.006,2.3-4,2.3-3.949,2.352Zm-12.014,2.326-4-2.295-3.979-2.328-4.006-2.295,4.006-2.3,4,2.3,4.008,2.295,3.977,2.3v4.621ZM-17811-23499l4.006,2.3v13.84l-4.006,2.295Z" transform="translate(17814.977 23519.76)" fill="#fff" style="mix-blend-mode: soft-light;isolation: isolate"/>
      <path id="Right" d="M105.371,47l-4,2.3-4,2.3-4,2.3h0l-4,2.3h0L85.4,58.514h0l-4,2.326V88.521l4-2.3h0l4-2.3,4-2.3h0l4-2.3,4-2.3,4-2.3h0L105.371,47Zm-4,25.355-4,2.3h0l-4,2.3h0l-4,2.3L85.4,81.6V63.167l4-2.3,4-2.3,4-2.3,4-2.3Z" transform="translate(-57.429 -33.16)" fill="#00800f"/>
      <path id="Left" d="M19.966,58.514l-4-2.3h0l-4-2.3-4-2.3h0l-4-2.3L0,47V74.681l4,2.3,4,2.3,4,2.3,4,2.3h0l4,2.3,4,2.3V60.84Zm0,23.087-4-2.3h0l-4-2.3h0L7.98,74.681l-4-2.3V53.92l4,2.3,4,2.3h0l4,2.326,4,2.3Z" transform="translate(0 -33.16)" fill="#05b72e"/>
      <path id="Top" d="M43.936,11.544l-4-2.3h0l-4-2.3h0l-4-2.3L27.975,2.3l-4-2.3-4,2.3-4,2.3-4,2.3h0l-4,2.3-4,2.3h0L0,13.84l4,2.3,4,2.3h0l4,2.3,4,2.3h0l4,2.3,3.946,2.356,4-2.3h0l4-2.3h0l4-2.3h0l4-2.3,4-2.3,4-2.3Zm-7.98,4.594h0l-4,2.3-3.975,2.326-4,2.3-4-2.3-4-2.3h0l-4-2.3L7.98,13.84l4-2.3h0l4-2.3,4-2.3h0l4-2.3h0l4,2.3,4,2.3h0l4,2.3h0l4,2.3Z" fill="#ade6ba"/>
    </g>
  </g>
</svg>
