<?xml version="1.0" encoding="utf-8"?>
<!-- Generator: Adobe Illustrator 26.0.1, SVG Export Plug-In . SVG Version: 6.00 Build 0)  -->
<svg version="1.1" id="Robust_logo" xmlns="http://www.w3.org/2000/svg" xmlns:xlink="http://www.w3.org/1999/xlink" x="0px"
	 y="0px" viewBox="0 0 784.2 188" style="enable-background:new 0 0 784.2 188;" xml:space="preserve">
<style type="text/css">
	.st0{fill:#E1822F;}
	.st1{fill:#FFDBC2;}
	.st2{fill:#FFFFFF;}
</style>
<g id="Subtext">
	<path id="D" d="M378.4,168h8.9c6.4,0,10.8,3.9,10.8,9.8c0,5.9-4.4,9.8-10.8,9.8h-8.9V168z M387.1,183.9c3.9,0,6.4-2.3,6.4-6.1
		s-2.5-6.1-6.4-6.1h-4.1v12.2H387.1z"/>
	<path id="O" d="M352,177.8c0-5.8,4.5-10.1,10.7-10.1c6.2,0,10.7,4.3,10.7,10.1c0,5.9-4.6,10.1-10.7,10.1
		C356.6,188,352,183.6,352,177.8z M368.9,177.8c0-3.7-2.6-6.3-6.1-6.3s-6.1,2.5-6.1,6.3c0,3.7,2.6,6.3,6.1,6.3
		S368.9,181.5,368.9,177.8z"/>
	<path id="N" d="M347.1,168v19.6h-3.7l-9.8-11.9v11.9h-4.5V168h3.8l9.7,11.9V168H347.1z"/>
	<path id="T" d="M312.9,171.7h-6.3V168h17.1v3.7h-6.3v15.9h-4.5V171.7z"/>
	<path id="E" d="M301.5,184v3.6h-15.2V168h14.8v3.6h-10.3v4.3h9.1v3.5h-9.1v4.5H301.5z"/>
	<path id="N_00000090295148529680596900000015900006676066704542_" d="M277.9,168v19.6h-3.7l-9.8-11.9v11.9h-4.5V168h3.8l9.7,11.9
		V168H277.9z"/>
	<path id="Y_00000042003076796752805560000013483189490649368241_" d="M239.1,180.7v6.9h-4.5v-7L227,168h4.8l5.2,8.7l5.2-8.7h4.5
		L239.1,180.7z"/>
	<path id="B" d="M225.6,182.3c0,3.4-2.7,5.3-7.8,5.3h-10.1V168h9.6c4.9,0,7.4,2,7.4,5.1c0,2-1,3.5-2.6,4.3
		C224.2,178.1,225.6,179.8,225.6,182.3z M212.1,171.4v4.6h4.5c2.2,0,3.4-0.8,3.4-2.3s-1.2-2.3-3.4-2.3H212.1z M221,181.8
		c0-1.7-1.3-2.4-3.6-2.4h-5.3v4.8h5.3C219.8,184.2,221,183.5,221,181.8z"/>
</g>
<g id="Text">
	<path id="Robust_T" d="M784.2,47h-71.9v21h22.7V141h26.6V67.9h22.7L784.2,47z"/>
	<path id="Robust_S" d="M625.7,132.6l8.8-19.7c9.3,5.9,20.1,9.1,31.1,9.3c11,0,15.3-3.1,15.3-7.7c0-14.9-53.6-4-53.6-39
		C627.3,58.7,641,45,669,45c12.3,0,24.9,2.8,34.2,8.2L695,73c-9-4.8-17.9-7.3-26.1-7.3c-11.2,0-15.2,3.8-15.2,8.5
		c0,14.4,53.5,3.6,53.5,38.4c0,16.4-13.7,30.4-41.7,30.4C649.9,143,634.6,138.8,625.7,132.6"/>
	<path id="Robust_U" d="M585.6,48.8v54.3c0,9.7-7.9,17.6-17.6,17.6s-17.6-7.9-17.6-17.6V48.8h-26.6v50c0,24.4,19.8,44.2,44.2,44.2
		s44.2-19.8,44.2-44.2v-50H585.6z"/>
	<path id="Robust_B" d="M510.8,115.2c0,16.3-13.5,25.9-38.8,25.9h-50.9V46.9h48.2c24.8,0,36.9,10.1,36.9,24.6
		c0,9-4.6,16.3-12.7,20.5C504.2,95.7,510.8,103.8,510.8,115.2 M447.5,66.1v18.2h18.3c8.9,0,13.5-3.1,13.5-9.2c0-5.9-4.6-9-13.5-9
		L447.5,66.1z M483.9,112.3c0-6.5-4.8-9.6-14-9.6h-22.4v19.1h22.4C479,121.8,483.9,118.7,483.9,112.3"/>
	<path id="Robust_O" d="M303.7,94c0-28.3,22.2-49,52.4-49c30.2,0,52.4,20.7,52.4,49s-22.2,49-52.4,49S303.7,122.3,303.7,94
		 M381.6,94c0-16.3-11.2-26.9-25.4-26.9c-14.3,0-25.4,10.6-25.4,26.9s11.2,26.9,25.4,26.9S381.6,110.3,381.6,94"/>
	<path id="Robust_R" d="M248.8,116.1h-14.5v25h-26.7V46.9h43.1c25.7,0,41.9,13.3,41.9,34.9c0,13.9-6.7,24.1-18.4,29.8l20.3,29.6
		h-28.5L248.8,116.1z M249.1,67.9h-14.8v27.6h14.8c11,0,16.6-5.1,16.6-13.7C265.7,73,260.1,67.9,249.1,67.9"/>
</g>
<g id="Symbol">
	<g id="Back">
		<path id="Black_Outer" d="M108.5,47v15.7L95,70.5V39.2L108.5,47z"/>
		<path id="Black_Inner" d="M81.4,15.7v62.7l-13.6-7.8V39.2L54.3,47l-13.6,7.8L27.1,47l13.6-7.8l0,0l0,0l13.6-7.8l13.6-7.8l0,0
			L81.4,15.7z"/>
		<path id="Black_Inner_00000011024224137113507970000007927132827323354776_" d="M67.8,101.8v15.7l-13.6,7.8l-13.6,7.8l0,0l0,0
			l-13.6-7.8l13.6-7.8l13.6-7.8l0,0l0,0L67.8,101.8z"/>
		<path id="Orange_Outer" class="st0" d="M67.8,39.2v31.3l-13.6-7.8V47L67.8,39.2z"/>
		<path id="Orange_Inner" class="st0" d="M135.6,47l-13.6,7.8L108.5,47L95,39.2v31.3l-13.6,7.8V15.7l0,0L95,23.5l13.6,7.8l0,0
			l13.6,7.8l0,0L135.6,47z"/>
		<path id="Orange_Inner_00000013879759996789503960000011809372646295626418_" class="st0" d="M135.6,125.3l-13.6,7.8l0,0l0,0
			l-13.6-7.8L95,117.5v-15.7l13.6,7.8l13.6,7.8l0,0L135.6,125.3z"/>
		<path id="Pink_Outer" class="st1" d="M67.8,101.8l-13.6,7.8l0,0l0,0l-13.6,7.8l-13.6,7.8v-15.7l13.6-7.8L54.3,94L67.8,101.8z"/>
		<path id="Pink_Outer_00000102507267653456423760000010604492600850512256_" class="st1" d="M135.6,109.6v15.7l-13.6-7.8l0,0l0,0
			l-13.6-7.8L95,101.8l13.6-7.8l13.6,7.8L135.6,109.6z"/>
	</g>
	<path id="Sphere" class="st2" d="M122,94.3c0,14.3-7.7,27.6-20.1,34.7l-0.5,0.3c-12.3,7.1-27.5,7.1-39.8,0l-0.5-0.3
		C48.7,121.9,41,108.6,41,94.3v-0.2c0-14.3,7.7-27.6,20.1-34.7l0.5-0.3c12.3-7.1,27.5-7.1,39.8,0l0.5,0.3
		c12.4,7.1,20.1,20.4,20.1,34.7V94.3z"/>
	<g id="Front">
		<path id="Black_Left" d="M27.1,78.3v47l-13.6,7.8V70.5L27.1,78.3z"/>
		<path id="Pink_Left" class="st1" d="M67.8,148.8v15.7l-13.6-7.8l0,0l-13.6-7.8l0,0L27.1,141l-13.6-7.8l13.6-7.8l13.6,7.8l0,0l0,0
			l13.6,7.8l0,0L67.8,148.8z"/>
		<path id="Pink_Right" class="st1" d="M149.2,133.1l-13.6,7.8l0,0l-13.6,7.8l0,0l-13.6,7.8L95,164.5v-15.7l13.6-7.8l13.6-7.8l0,0
			l0,0l13.6-7.8L149.2,133.1z"/>
		<path id="Orange_Right" class="st0" d="M149.2,70.5v62.7l-13.6-7.8v-47L149.2,70.5z"/>
		<path id="Right" d="M162.8,47l-13.6,7.8l-13.6,7.8l-13.6,7.8l0,0l-13.6,7.8l0,0L95,86.1l0,0L81.4,94v94l13.6-7.8l0,0l13.6-7.8
			l13.6-7.8l0,0l0,0l13.6-7.8l13.6-7.8l13.6-7.8l0,0L162.8,47L162.8,47z M149.2,133.1l-13.6,7.8l0,0l-13.6,7.8l0,0l-13.6,7.8
			L95,164.5v-62.6l13.6-7.8l13.6-7.8l13.6-7.8l13.6-7.8L149.2,133.1z"/>
		<path id="Left" class="st0" d="M67.8,86.1l-13.6-7.8l0,0l-13.6-7.8l-13.6-7.8l0,0l-13.6-7.8L0,47v94l13.6,7.8l13.6,7.8l13.6,7.8
			l13.6,7.8l0,0l0,0l13.6,7.8l13.6,7.8V94L67.8,86.1z M67.8,164.5l-13.6-7.8l0,0l-13.6-7.8l0,0L27.1,141l-13.6-7.8V70.5l13.6,7.8
			l13.6,7.8l0,0L54.3,94l13.6,7.8L67.8,164.5z"/>
		<path id="Top" class="st1" d="M149.2,39.2l-13.6-7.8l0,0l-13.6-7.8l0,0l-13.6-7.8L95,7.8L81.4,0L67.8,7.8l-13.6,7.8l-13.6,7.8l0,0
			l-13.6,7.8l-13.6,7.8l0,0L0,47l13.6,7.8l13.6,7.8l0,0l13.6,7.8l13.6,7.8l0,0l13.6,7.8L81.4,94l13.6-7.8l0,0l13.6-7.8l0,0l13.6-7.8
			l0,0l13.6-7.8l13.6-7.8l13.6-7.8L149.2,39.2z M122.1,54.8L122.1,54.8l-13.6,7.8L95,70.5l-13.6,7.8l-13.6-7.8l-13.6-7.8l0,0
			l-13.6-7.8L27.1,47l13.6-7.8l0,0l0,0l13.6-7.8l13.6-7.8l0,0l13.6-7.8l0,0l13.6,7.8l13.6,7.8l0,0l13.6,7.8l0,0l13.6,7.8L122.1,54.8
			z"/>
	</g>
</g>
</svg>
