<svg id="Robust-logo_white-sphere" xmlns="http://www.w3.org/2000/svg" width="399.113" height="95.669" viewBox="0 0 399.113 95.669">
  <g id="Subtext" transform="translate(105.694 85.339)">
    <path id="D" d="M378.4,168h4.529c3.257,0,5.5,1.985,5.5,4.987s-2.239,4.987-5.5,4.987H378.4Zm4.427,8.091a3.108,3.108,0,1,0,0-6.208h-2.086v6.208h2.086Z" transform="translate(-291.535 -167.847)" fill="#fff"/>
    <path id="O" d="M352,172.84a5.454,5.454,0,1,1,5.445,5.14A5.14,5.14,0,0,1,352,172.84Zm8.6,0a3.106,3.106,0,1,0-3.1,3.206A3.048,3.048,0,0,0,360.6,172.84Z" transform="translate(-278.569 -167.7)" fill="#fff"/>
    <path id="N" d="M338.26,168v9.974h-1.883l-4.987-6.056v6.056H329.1V168h1.934l4.936,6.056V168Z" transform="translate(-267.322 -167.847)" fill="#fff"/>
    <path id="T" d="M309.806,169.883H306.6V168h8.7v1.883H312.1v8.091h-2.29v-8.091Z" transform="translate(-256.272 -167.847)" fill="#fff"/>
    <path id="E" d="M294.035,176.142v1.832H286.3V168h7.531v1.832H288.59v2.188h4.631V173.8H288.59v2.29h5.445Z" transform="translate(-246.302 -167.847)" fill="#fff"/>
    <path id="N_00000090295148529680596900000015900006676066704542_" d="M269.06,168v9.974h-1.883l-4.987-6.056v6.056H259.9V168h1.934l4.936,6.056V168Z" transform="translate(-233.337 -167.847)" fill="#fff"/>
    <path id="Y_00000042003076796752805560000013483189490649368241_" d="M233.157,174.463v3.511h-2.29v-3.562L227,168h2.443l2.646,4.427L234.735,168h2.29Z" transform="translate(-217.179 -167.847)" fill="#fff"/>
    <path id="B" d="M216.809,175.277c0,1.73-1.374,2.7-3.969,2.7H207.7V168h4.885c2.493,0,3.766,1.018,3.766,2.6a2.34,2.34,0,0,1-1.323,2.188A2.494,2.494,0,0,1,216.809,175.277Zm-6.87-5.547v2.341h2.29c1.12,0,1.73-.407,1.73-1.17s-.611-1.17-1.73-1.17Zm4.529,5.292c0-.865-.662-1.221-1.832-1.221h-2.7v2.443h2.7C213.857,176.244,214.468,175.888,214.468,175.023Z" transform="translate(-207.7 -167.847)" fill="#fff"/>
  </g>
  <g id="Text" transform="translate(105.643 22.899)">
    <path id="Robust_T" d="M748.888,47H712.3V57.686h11.552V94.834h13.536v-37.2h11.552Z" transform="translate(-455.47 -45.982)" fill="#fff"/>
    <path id="Robust_S" d="M625.7,89.578l4.478-10.025A30.617,30.617,0,0,0,646,84.285c5.6,0,7.786-1.578,7.786-3.918,0-7.582-27.276-2.036-27.276-19.846,0-8.549,6.972-15.521,21.22-15.521,6.259,0,12.671,1.425,17.4,4.173l-4.173,10.076a28.6,28.6,0,0,0-13.282-3.715c-5.7,0-7.735,1.934-7.735,4.325,0,7.328,27.225,1.832,27.225,19.541,0,8.346-6.972,15.47-21.22,15.47-7.938,0-15.724-2.137-20.253-5.292" transform="translate(-412.938 -45)" fill="#fff"/>
    <path id="Robust_U" d="M555.249,48.8V76.432a8.956,8.956,0,0,1-17.912,0V48.8H523.8V74.244a22.492,22.492,0,0,0,44.985,0V48.8H555.249Z" transform="translate(-362.893 -46.866)" fill="#fff"/>
    <path id="Robust_B" d="M466.746,81.656c0,8.295-6.87,13.18-19.744,13.18H421.1V46.9h24.528c12.62,0,18.778,5.14,18.778,12.518a11.377,11.377,0,0,1-6.463,10.432c5.445,1.883,8.8,6,8.8,11.806M434.534,56.67v9.262h9.312c4.529,0,6.87-1.578,6.87-4.682,0-3-2.341-4.58-6.87-4.58Zm18.523,23.51c0-3.308-2.443-4.885-7.124-4.885h-11.4v9.72h11.4c4.631,0,7.124-1.578,7.124-4.834" transform="translate(-312.455 -45.933)" fill="#fff"/>
    <path id="Robust_O" d="M303.7,69.935C303.7,55.534,315,45,330.365,45S357.03,55.534,357.03,69.935s-11.3,24.935-26.665,24.935S303.7,84.336,303.7,69.935m39.642,0c0-8.295-5.7-13.689-12.925-13.689-7.277,0-12.925,5.394-12.925,13.689s5.7,13.689,12.925,13.689,12.925-5.394,12.925-13.689" transform="translate(-254.797 -45)" fill="#fff"/>
    <path id="Robust_R" d="M228.566,82.114h-7.379V94.836H207.6V46.9h21.933c13.078,0,21.322,6.768,21.322,17.76,0,7.073-3.409,12.264-9.363,15.165l10.33,15.063h-14.5Zm.153-24.528h-7.531V71.631h7.531c5.6,0,8.447-2.6,8.447-6.972,0-4.478-2.85-7.073-8.447-7.073" transform="translate(-207.6 -45.933)" fill="#fff"/>
  </g>
  <g id="Symbol">
    <g id="Back" transform="translate(13.74 7.989)">
      <path id="Black_Outer" d="M101.87,43.169v7.989L95,55.128V39.2Z" transform="translate(-60.396 -27.241)" fill="#090d14"/>
      <path id="Black_Inner" d="M54.732,15.7V47.607l-6.921-3.969V27.659l-6.87,3.969L34.021,35.6,27.1,31.628l6.921-3.969h0l6.921-3.969,6.921-3.969h0Z" transform="translate(-27.049 -15.7)" fill="#090d14"/>
      <path id="Black_Inner_00000011024224137113507970000007927132827323354776_" d="M47.762,101.8v7.989l-6.921,3.969-6.921,3.969h0L27,113.759l6.921-3.969,6.921-3.969h0Z" transform="translate(-27 -57.986)" fill="#090d14"/>
      <path id="Orange_Outer" d="M61.121,39.2V55.128L54.2,51.159V43.169Z" transform="translate(-40.359 -27.241)" fill="#e1822f"/>
      <path id="Orange_Inner" d="M108.981,31.628,102.06,35.6l-6.87-3.969-6.87-3.969V43.586L81.4,47.556V15.7h0l6.921,3.969,6.921,3.969h0l6.921,3.969h0Z" transform="translate(-53.717 -15.7)" fill="#e1822f"/>
      <path id="Orange_Inner_00000013879759996789503960000011809372646295626418_" d="M115.66,113.759l-6.921,3.969h0l-6.921-3.969L95,109.789V101.8l6.921,3.969,6.921,3.969h0Z" transform="translate(-60.396 -57.986)" fill="#e1822f"/>
      <path id="Pink_Outer" d="M47.762,97.969l-6.921,3.969h0l-6.921,3.969L27,109.877v-7.989l6.921-3.969L40.892,94Z" transform="translate(-27 -54.155)" fill="#ffdbc2"/>
      <path id="Pink_Outer_00000102507267653456423760000010604492600850512256_" d="M115.66,101.938v7.989l-6.921-3.969h0l-6.921-3.969L95,97.969,101.921,94l6.921,3.969Z" transform="translate(-60.396 -54.155)" fill="#ffdbc2"/>
    </g>
    <path id="Sphere" d="M82.219,74.4A20.392,20.392,0,0,1,71.991,92.055l-.254.153a20.277,20.277,0,0,1-20.253,0l-.254-.153A20.392,20.392,0,0,1,41,74.4v-.1A20.392,20.392,0,0,1,51.228,56.637l.254-.153a20.277,20.277,0,0,1,20.253,0l.254.153A20.392,20.392,0,0,1,82.219,74.3Z" transform="translate(-20.136 -26.41)" fill="#fff"/>
    <g id="Front">
      <path id="Black_Left" d="M20.421,74.469V98.386L13.5,102.356V70.5Z" transform="translate(-6.63 -34.624)" fill="#090d14"/>
      <path id="Pink_Left" d="M41.132,137.308V145.3l-6.921-3.969h0l-6.921-3.969h0l-6.87-4.02L13.5,129.369l6.921-3.969,6.921,3.969h0l6.921,3.969h0Z" transform="translate(-6.63 -61.587)" fill="#ffdbc2"/>
      <path id="Pink_Right" d="M122.581,129.318l-6.921,3.969h0l-6.921,3.969h0l-6.921,3.969L95,145.3v-7.989l6.921-3.969,6.921-3.969h0l6.921-3.969Z" transform="translate(-46.657 -61.587)" fill="#ffdbc2"/>
      <path id="Orange_Right" d="M142.521,70.5v31.907L135.6,98.437V74.52Z" transform="translate(-66.596 -34.624)" fill="#e1822f"/>
      <path id="Right" d="M122.823,47,115.9,50.969l-6.921,3.969-6.921,3.969h0L95.14,62.877h0L88.321,66.9h0L81.4,70.917v47.834l6.921-3.969h0l6.921-3.969,6.921-3.969h0l6.921-3.969L116,98.905l6.921-3.969h0L122.823,47ZM115.9,90.814l-6.921,3.969h0l-6.921,3.969h0l-6.921,3.969-6.819,4.071V74.937l6.921-3.969L102.162,67l6.921-3.969L116,59.06Z" transform="translate(-39.977 -23.083)" fill="#090d14"/>
      <path id="Left" d="M34.5,66.9l-6.921-3.969h0L20.66,58.959,13.74,54.989h0L6.819,51.02,0,47V94.834L6.921,98.8l6.921,3.969,6.921,3.969,6.921,3.969h0l6.921,3.969,6.921,3.969V70.917Zm0,39.9-6.921-3.969h0L20.66,98.855h0l-6.87-4.02L6.87,90.865V58.959l6.921,3.969L20.711,66.9h0l6.921,4.02,6.921,3.969Z" transform="translate(0 -23.083)" fill="#e1822f"/>
      <path id="Top" d="M75.925,19.948,69,15.979h0L62.083,12.01h0L55.162,8.04,48.343,3.969,41.423,0,34.5,3.969,27.581,7.938,20.66,11.908h0L13.74,15.877,6.819,19.846h0L0,23.917l6.921,3.969,6.921,3.969h0l6.921,3.969,6.921,3.969h0L34.6,43.763l6.819,4.071,6.921-3.969h0L55.264,39.9h0l6.921-3.969h0l6.921-3.969,6.921-3.969,6.921-3.969ZM62.134,27.886h0l-6.921,3.969-6.87,4.02-6.921,3.969L34.5,35.876l-6.921-3.969h0L20.66,27.937l-6.87-4.02,6.921-3.969h0l6.921-3.969,6.921-3.969h0L41.474,8.04h0l6.921,3.969,6.921,3.969h0l6.921,3.969h0l6.921,3.969Z" fill="#ffdbc2"/>
    </g>
  </g>
</svg>
