<svg id="Group_161" data-name="Group 161" xmlns="http://www.w3.org/2000/svg" width="48" height="55.362" viewBox="0 0 48 55.362">
  <g id="Symbol">
    <g id="Back" transform="translate(7.951 4.623)">
      <path id="Black_Outer" d="M98.975,41.5V46.12L95,48.417V39.2Z" transform="translate(-74.975 -32.28)" fill="#f53737"/>
      <path id="Black_Inner" d="M43.09,15.7V34.164l-4-2.3V22.62l-3.975,2.3-4,2.3-4-2.3,4-2.3h0l4-2.3,4-2.3h0Z" transform="translate(-27.071 -15.7)" fill="#f53737"/>
      <path id="Black_Inner_00000011024224137113507970000007927132827323354776_" d="M39.015,101.8v4.623l-4,2.3-4,2.3h0l-4-2.3,4-2.3,4-2.3h0Z" transform="translate(-27 -76.445)" fill="#f53737"/>
      <path id="Orange_Outer" d="M58.2,39.2v9.217l-4-2.3V41.5Z" transform="translate(-46.19 -32.28)" fill="#ffb0a3"/>
      <path id="Orange_Inner" d="M97.361,24.917l-4,2.3-3.975-2.3L85.4,22.62v9.217l-4,2.3V15.7h0l4,2.3,4,2.3h0l4,2.3h0Z" transform="translate(-65.38 -15.7)" fill="#ffb0a3"/>
      <path id="Orange_Inner_00000013879759996789503960000011809372646295626418_" d="M106.956,108.72l-4,2.3h0l-4-2.3L95,106.423V101.8l4,2.3,4,2.3h0Z" transform="translate(-74.975 -76.445)" fill="#ffb0a3"/>
      <path id="Pink_Outer" d="M39.015,96.3l-4,2.3h0l-4,2.3-4,2.3V98.564l4-2.3L35.039,94Z" transform="translate(-27 -70.942)" fill="#ffd1c5"/>
      <path id="Pink_Outer_00000102507267653456423760000010604492600850512256_" d="M106.956,98.594v4.623l-4-2.3h0l-4-2.3L95,96.3,99,94l4,2.3Z" transform="translate(-74.975 -70.942)" fill="#ffd1c5"/>
    </g>
    <path id="Sphere" d="M64.853,65.709a11.8,11.8,0,0,1-5.919,10.218l-.147.088a11.734,11.734,0,0,1-11.72,0l-.147-.088A11.8,11.8,0,0,1,41,65.709V65.65a11.8,11.8,0,0,1,5.919-10.218l.147-.088a11.734,11.734,0,0,1,11.72,0l.147.088A11.8,11.8,0,0,1,64.853,65.65Z" transform="translate(-28.926 -37.939)" fill="#be0000"/>
    <g id="Front">
      <path id="Black_Left" d="M17.5,72.8v13.84l-4,2.3V70.5Z" transform="translate(-9.525 -49.739)" fill="#f53737"/>
      <path id="Pink_Left" d="M29.49,132.291v4.623l-4-2.3h0l-4-2.3h0L17.5,129.994l-4-2.3,4-2.3,4,2.3h0l4,2.3h0Z" transform="translate(-9.525 -88.472)" fill="#ffd1c5"/>
      <path id="Pink_Right" d="M110.961,127.667l-4,2.3h0l-4,2.3h0l-4,2.3L95,136.914v-4.623l4-2.3,4-2.3h0l4-2.3Z" transform="translate(-67.025 -88.472)" fill="#ffd1c5"/>
      <path id="Orange_Right" d="M139.6,70.5V88.964l-4-2.3V72.826Z" transform="translate(-95.669 -49.739)" fill="#ffb0a3"/>
      <path id="Right" d="M105.371,47l-4,2.3-4,2.3-4,2.3h0l-4,2.3h0L85.4,58.514h0l-4,2.326V88.521l4-2.3h0l4-2.3,4-2.3h0l4-2.3,4-2.3,4-2.3h0L105.371,47Zm-4,25.355-4,2.3h0l-4,2.3h0l-4,2.3L85.4,81.6V63.167l4-2.3,4-2.3,4-2.3,4-2.3Z" transform="translate(-57.429 -33.16)" fill="#f53737"/>
      <path id="Left" d="M19.966,58.514l-4-2.3h0l-4-2.3-4-2.3h0l-4-2.3L0,47V74.681l4,2.3,4,2.3,4,2.3,4,2.3h0l4,2.3,4,2.3V60.84Zm0,23.087-4-2.3h0l-4-2.3h0L7.98,74.681l-4-2.3V53.92l4,2.3,4,2.3h0l4,2.326,4,2.3Z" transform="translate(0 -33.16)" fill="#ff8686"/>
      <path id="Top" d="M43.936,11.544l-4-2.3h0l-4-2.3h0l-4-2.3L27.975,2.3l-4-2.3-4,2.3-4,2.3-4,2.3h0l-4,2.3-4,2.3h0L0,13.84l4,2.3,4,2.3h0l4,2.3,4,2.3h0l4,2.3,3.946,2.356,4-2.3h0l4-2.3h0l4-2.3h0l4-2.3,4-2.3,4-2.3Zm-7.98,4.594h0l-4,2.3-3.975,2.326-4,2.3-4-2.3-4-2.3h0l-4-2.3L7.98,13.84l4-2.3h0l4-2.3,4-2.3h0l4-2.3h0l4,2.3,4,2.3h0l4,2.3h0l4,2.3Z" fill="#ffc9c9"/>
    </g>
  </g>
</svg>
